<?xml version="1.0" encoding="UTF-8"?><svg id="Layer_2" xmlns="http://www.w3.org/2000/svg" viewBox="0 0 217.11524 51.39419"><defs><style>.cls-1{fill:#f0e7d8;}</style></defs><g id="Layer_1-2"><path class="cls-1" d="M70.91715,32.61071c-.47485,1.11473-1.13847,1.90344-1.99204,2.36554-.85414.46326-1.85074.69374-2.98921.69374-1.06667,0-2.06963-.20152-3.00601-.60456-.93753-.40304-1.76098-.99602-2.47325-1.77893-.71111-.78292-1.27513-1.73145-1.68976-2.84618-.4152-1.11473-.62251-2.38407-.62251-3.80687v-.56924c0-1.39906.20094-2.65624.60514-3.77155.40304-1.11473.94853-2.06326,1.63648-2.84618s1.48824-1.38169,2.40145-1.79631c.91321-.4152,1.89128-.62309,2.93536-.62309,1.2566,0,2.27115.2131,3.04191.64046s1.38111,1.09099,1.83221,1.99204h.64046v-2.13449h4.48266v12.31009c0,.71227.32081,1.06782.96127,1.06782h.67521v4.26898h-3.05928c-.80666,0-1.46449-.23626-1.97466-.71111-.51017-.47427-.76497-1.09099-.76497-1.85016h-.64046ZM66.9325,31.40101c1.30409,0,2.34817-.43257,3.13109-1.2983.78234-.8663,1.1738-2.04647,1.1738-3.5405v-.42736c0-1.49403-.39146-2.67361-1.1738-3.53934-.78292-.8663-1.827-1.29888-3.13109-1.29888-1.30467,0-2.34817.43257-3.13109,1.29888-.78292.86573-1.17437,2.04531-1.17437,3.53934v.42736c0,1.49403.39146,2.67419,1.17437,3.5405.78292.86573,1.82642,1.2983,3.13109,1.2983Z"/><path class="cls-1" d="M85.43701,35.17199h-4.48324v-17.64689h4.48324v2.63308h.63988c.40304-.9966,1.05566-1.76677,1.95671-2.31285.90105-.54491,1.95729-.81824,3.16641-.81824.85414,0,1.65501.13666,2.40203.40883.74701.27333,1.40485.69374,1.97466,1.26355.56866.56924,1.01339,1.29251,1.3342,2.17039.31965.87789.48006,1.92139.48006,3.13051v11.17162h-4.48266v-10.03315c0-1.2566-.30228-2.24683-.90742-2.97068-.60514-.72327-1.47665-1.0852-2.61513-1.0852-1.32899,0-2.31864.44473-2.97068,1.3342-.65262.88947-.97807,2.08121-.97807,3.57582v9.179Z"/><path class="cls-1" d="M113.77488,32.61071c-.47485,1.11473-1.13847,1.90344-1.99204,2.36554-.85414.46326-1.85074.69374-2.98921.69374-1.06667,0-2.06963-.20152-3.00601-.60456-.93753-.40304-1.76098-.99602-2.47325-1.77893-.71111-.78292-1.27513-1.73145-1.68976-2.84618-.4152-1.11473-.62251-2.38407-.62251-3.80687v-.56924c0-1.39906.20094-2.65624.60514-3.77155.40304-1.11473.94853-2.06326,1.63648-2.84618s1.48824-1.38169,2.40145-1.79631c.91321-.4152,1.89128-.62309,2.93536-.62309,1.2566,0,2.27115.2131,3.04191.64046s1.38111,1.09099,1.83221,1.99204h.64046v-2.13449h4.48266v12.31009c0,.71227.32081,1.06782.96127,1.06782h.67521v4.26898h-3.05928c-.80666,0-1.46449-.23626-1.97466-.71111-.51017-.47427-.76497-1.09099-.76497-1.85016h-.64046ZM109.79023,31.40101c1.30409,0,2.34817-.43257,3.13109-1.2983.78234-.8663,1.1738-2.04647,1.1738-3.5405v-.42736c0-1.49403-.39146-2.67361-1.1738-3.53934-.78292-.8663-1.827-1.29888-3.13109-1.29888-1.30467,0-2.34817.43257-3.13109,1.29888-.78292.86573-1.17437,2.04531-1.17437,3.53934v.42736c0,1.49403.39146,2.67419,1.17437,3.5405.78292.86573,1.82642,1.2983,3.13109,1.2983Z"/><path class="cls-1" d="M123.15367,17.52509h7.47129v2.56185h.64046c.33123-.97228.89468-1.72566,1.68976-2.25957.7945-.53333,1.74882-.80029,2.86413-.80029,1.75461,0,3.16641.55128,4.23424,1.65443,1.06667,1.10315,1.60058,2.78132,1.60058,5.03452v.78234l-4.62511.42736v-.49801c0-.97285-.249-1.74882-.74759-2.33022-.49801-.5814-1.24502-.87209-2.24104-.87209s-1.77893.34397-2.34817,1.03192-.85414,1.67238-.85414,2.95331v5.69236h4.05588v4.26898h-12.16764v-4.26898h3.6291v-9.10835h-3.20174v-4.26956Z"/><path class="cls-1" d="M162.53576,28.69671c-.4042,2.08758-1.35852,3.77155-2.86413,5.05248-1.50677,1.28035-3.51733,1.92081-6.03054,1.92081-1.30525,0-2.52132-.20152-3.64705-.60456-1.12689-.40304-2.10554-.98386-2.93536-1.74303-.83098-.75917-1.48302-1.69555-1.95671-2.81086-.47485-1.11473-.71169-2.38349-.71169-3.80687v-.42736c0-1.4228.23684-2.70373.71169-3.8422.47369-1.13847,1.1321-2.11075,1.97466-2.91741.8414-.80608,1.82584-1.4228,2.95273-1.85016,1.12631-.42736,2.3308-.64046,3.61172-.64046,2.4663,0,4.46471.64046,5.99464,1.92139,1.52993,1.28093,2.49584,2.96489,2.90003,5.0519l-4.41259,1.13847c-.14187-1.0435-.59298-1.94455-1.35157-2.70373-.75975-.75917-1.82642-1.13847-3.20231-1.13847-.64046,0-1.24502.11871-1.81426.35613-.56924.23684-1.06725.57503-1.49461,1.01339-.42678.43894-.76439.97285-1.01339,1.60116-.249.62888-.37409,1.3342-.37409,2.11712v.21368c0,.78234.12508,1.47608.37409,2.08121.249.60456.58661,1.10894,1.01339,1.51198.42736.40362.92537.7059,1.49461.90742s1.1738.30228,1.81426.30228c1.37589,0,2.42519-.34397,3.14904-1.03192.72327-.68795,1.19175-1.61274,1.40485-2.77495l4.41259,1.10257Z"/><path class="cls-1" d="M170.81777,35.17199h-4.48324V10.2669h4.48324v10.10495h.64046c.45052-1.06782,1.11473-1.89128,1.99204-2.47267.87789-.5814,1.95729-.87209,3.23822-.87209.87673,0,1.68397.14245,2.4194.42736.73485.28433,1.37474.71111,1.92139,1.28035.54491.56924.9717,1.29888,1.28093,2.18834.30749.88947.46211,1.93876.46211,3.14846v11.10039h-4.48324v-10.03315c0-1.2566-.30228-2.24683-.90684-2.97068-.60456-.72327-1.47665-1.0852-2.61513-1.0852-1.32841,0-2.31864.44473-2.97068,1.3342-.6532.88947-.97865,2.08121-.97865,3.57582v9.179Z"/><path class="cls-1" d="M199.22397,17.52509h4.48324v21.98768c0,.80608-.25595,1.47086-.76554,1.99262-.51075.52175-1.16858.78234-1.97466.78234h-10.49525v-4.26898h7.79095c.64046,0,.96127-.35556.96127-1.06782v-4.34021h-.64046c-.78292,2.0401-2.46688,3.05928-5.0519,3.05928-.87789,0-1.69671-.14187-2.4553-.4262-.75975-.28491-1.42338-.72385-1.99204-1.31683-.56982-.59298-1.01455-1.3342-1.3342-2.22367-.32081-.88947-.48064-1.93876-.48064-3.14904v-11.02916h4.48324v10.10437c0,1.25718.29591,2.23583.88947,2.93536.59182.69953,1.48129,1.04929,2.6684,1.04929,1.35157,0,2.3418-.43199,2.97068-1.2983.62772-.86573.94274-2.04589.94274-3.5405v-9.25023Z"/><path class="cls-1" d="M217.11524,32.29048c0,.47485-.08802.91958-.26638,1.3342-.17836.4152-.42157.77133-.72964,1.06725-.30807.29707-.67058.53333-1.0852.71169-.41462.17778-.84777.26638-1.2983.26638-.47485,0-.91379-.0886-1.31683-.26638-.40304-.17836-.7586-.41462-1.06667-.71169-.30923-.29591-.55128-.65204-.72964-1.06725-.17836-.41462-.26638-.85936-.26638-1.3342,0-.47427.08802-.919.26638-1.3342.17836-.41462.42041-.77018.72964-1.06782.30807-.29591.66363-.53333,1.06667-.71111.40304-.17836.84198-.26696,1.31683-.26696.45052,0,.88368.0886,1.2983.26696.41462.17778.77713.4152,1.0852.71111.30807.29765.55128.6532.72964,1.06782.17836.4152.26638.85993.26638,1.3342Z"/><path class="cls-1" d="M40.30423,19.37581c-.83421-1.94689-1.97681-3.61524-3.42232-5.00915-1.44688-1.38985-3.14512-2.50394-5.0921-3.33812-.64422-.2763-1.29766-.50614-1.96032-.69037-.7722-.21466-1.49194.48511-1.31518,1.26691l2.5553,11.29537c.15088.66648-.35575,1.30057-1.03914,1.30057h-8.66301c-.68447,0-1.19139-.63616-1.03862-1.30332l2.59584-11.33311c.17871-.78007-.53646-1.47788-1.30969-1.27192-.71975.19165-1.41796.43683-2.09471.73586-1.89401.83418-3.56363,1.94827-5.00919,3.33812-1.44705,1.39391-2.58691,3.06226-3.42249,5.00915-.83404,1.9483-1.25122,4.03512-1.25122,6.26052,0,2.22675.41719,4.31357,1.25122,6.26046.83558,1.94822,1.97544,3.61801,3.42249,5.00786.28962.27911.58862.54665.8965.803.61399.51084,1.55189.19724,1.72854-.58167l.95302-4.20485c.10999-.48533.54144-.82991,1.03914-.82991h13.2009c.4977,0,.92914.34458,1.03902.82991l.96104,4.23986c.17974.79261,1.15606,1.08537,1.74199.52232l.81067-.77867c1.4455-1.38985,2.58811-3.05964,3.42232-5.00786.83552-1.94689,1.2526-4.03371,1.2526-6.26046,0-2.2254-.41707-4.31222-1.2526-6.26052Z"/><path class="cls-1" d="M25.69711,0C11.505,0,0,11.50499,0,25.69711s11.505,25.69708,25.69711,25.69708,25.69705-11.50497,25.69705-25.69708S39.88922,0,25.69711,0ZM25.69711,48.0781c-12.25675,0-22.19303-9.93606-22.19303-22.19299S13.44036,3.69213,25.69711,3.69213s22.19314,9.93615,22.19314,22.19299-9.93622,22.19299-22.19314,22.19299Z"/></g></svg>